# xmcd
#
# Track frame offsets: 
#        150
#        20324
#        34454
#        50896
#        64867
#        80340
#        94692
#        110620
#        131429
#        147795
#        166977
#
# Disc length: 2501 seconds
#
# Revision: 0
# Processed by: cddbd v1.5.2PL0 Copyright (c) Steve Scherf et al.
# Submitted via: ExactAudioCopy v0.95b4
#
DISCID=9409c30b
DTITLE=Cactus Hunters - Something Gone
DYEAR=2005
DGENRE=Country
TTITLE0=Arizona
TTITLE1=Broken Down
TTITLE2=You And Me
TTITLE3=Church On The Hill
TTITLE4=Marianne
TTITLE5=Last Tango In Paris
TTITLE6=One Way Town
TTITLE7=Something Gone
TTITLE8=Mexico
TTITLE9=Beautiful Sadness
TTITLE10=Waiting On The Mood
EXTD=
EXTT0=
EXTT1=
EXTT2=
EXTT3=
EXTT4=
EXTT5=
EXTT6=
EXTT7=
EXTT8=
EXTT9=
EXTT10=
PLAYORDER=
